<?xml version="1.0" encoding="UTF-8" standalone="no"?>
<svg
   t="1776154849012"
   class="icon"
   viewBox="0 0 1024 1024"
   version="1.1"
   p-id="2167"
   width="200"
   height="200"
   id="svg1"
   sodipodi:docname="android.svg"
   inkscape:version="1.4.3 (0d15f75, 2025-12-25)"
   xmlns:inkscape="http://www.inkscape.org/namespaces/inkscape"
   xmlns:sodipodi="http://sodipodi.sourceforge.net/DTD/sodipodi-0.dtd"
   xmlns="http://www.w3.org/2000/svg"
   xmlns:svg="http://www.w3.org/2000/svg">
  <defs
     id="defs1" />
  <sodipodi:namedview
     id="namedview1"
     pagecolor="#000000"
     bordercolor="#000000"
     borderopacity="0.25"
     inkscape:showpageshadow="2"
     inkscape:pageopacity="0.0"
     inkscape:pagecheckerboard="0"
     inkscape:deskcolor="#d1d1d1"
     inkscape:zoom="4.035"
     inkscape:cx="100.12392"
     inkscape:cy="100"
     inkscape:window-width="1920"
     inkscape:window-height="1009"
     inkscape:window-x="3832"
     inkscape:window-y="-8"
     inkscape:window-maximized="1"
     inkscape:current-layer="svg1" />
  <path
     id="path2"
     style="fill:#ffffff;fill-opacity:0.85;stroke-width:0.847063"
     inkscape:label="path2"
     d="m 259.14398,278.7022 a 36.141364,36.141364 0 0 0 -18.0975,4.77887 36.141364,36.141364 0 0 0 -13.44116,49.30627 l 60.27787,105.40851 a 397.37429,397.37429 0 0 0 -171.45497,288.71169 36.141364,36.141364 0 0 0 35.96879,39.72024 h 719.20598 a 36.141364,36.141364 0 0 0 35.96879,-39.72024 397.555,397.555 0 0 0 -184.61336,-297.308 l 55.32934,-96.8122 a 36.149326,36.149326 0 0 0 -62.77571,-35.8651 L 658.41067,396.9015 C 613.0894,378.93924 563.68059,369.06717 511.9623,369.06717 A 396.18162,396.18162 0 0 0 350.9888,402.99998 L 290.38102,296.92224 A 36.141364,36.141364 0 0 0 259.14398,278.7022 Z m 410.6059,253.8363 a 71.608359,71.608359 0 0 1 76.49964,71.44742 71.613954,71.613954 0 0 1 -143.22475,0 71.608359,71.608359 0 0 1 66.72511,-71.44742 z m -320.65566,5.21246 a 66.236774,66.236774 0 1 1 0,132.46993 66.236774,66.236774 0 0 1 0,-132.46993 z" />
</svg>
