<?xml version="1.0" encoding="UTF-8" standalone="no"?>
<svg
   width="96"
   height="96"
   version="1.1"
   id="svg1"
   sodipodi:docname="browser.svg"
   inkscape:version="1.4.3 (0d15f75, 2025-12-25)"
   xmlns:inkscape="http://www.inkscape.org/namespaces/inkscape"
   xmlns:sodipodi="http://sodipodi.sourceforge.net/DTD/sodipodi-0.dtd"
   xmlns="http://www.w3.org/2000/svg"
   xmlns:svg="http://www.w3.org/2000/svg">
  <defs
     id="defs1" />
  <sodipodi:namedview
     id="namedview1"
     pagecolor="#ffffff"
     bordercolor="#000000"
     borderopacity="0.28235294"
     inkscape:showpageshadow="2"
     inkscape:pageopacity="0.0"
     inkscape:pagecheckerboard="true"
     inkscape:deskcolor="#000000"
     showborder="true"
     inkscape:zoom="10"
     inkscape:cx="98.2"
     inkscape:cy="61.05"
     inkscape:window-width="2880"
     inkscape:window-height="1694"
     inkscape:window-x="-11"
     inkscape:window-y="-11"
     inkscape:window-maximized="1"
     inkscape:current-layer="svg1"
     showguides="false" />
  <path
     style="fill:none;stroke:#ffffff;stroke-width:8;stroke-linecap:round;stroke-dasharray:none;stroke-opacity:1"
     id="path1"
     sodipodi:type="arc"
     sodipodi:cx="47.581223"
     sodipodi:cy="48.002224"
     sodipodi:rx="30.654041"
     sodipodi:ry="30.653992"
     sodipodi:start="3.0857421"
     sodipodi:end="5.8957222"
     sodipodi:arc-type="arc"
     d="M 16.974978,49.713376 A 30.654041,30.653992 0 0 1 40.842047,18.098196 30.654041,30.653992 0 0 1 75.962898,36.419895"
     sodipodi:open="true" />
  <path
     style="fill:none;stroke:#ffffff;stroke-width:8;stroke-linecap:round;stroke-dasharray:none;stroke-opacity:1"
     id="path1-1"
     sodipodi:type="arc"
     sodipodi:cx="47.720715"
     sodipodi:cy="47.997849"
     sodipodi:rx="30.654041"
     sodipodi:ry="30.653992"
     sodipodi:start="0.17453293"
     sodipodi:end="2.6232299"
     sodipodi:arc-type="arc"
     d="M 77.909052,53.320858 A 30.654041,30.653992 0 0 1 52.964681,78.199969 30.654041,30.653992 0 0 1 21.093648,63.185634"
     sodipodi:open="true" />
  <path
     style="fill:none;stroke:#ffffff;stroke-width:8.00387811;stroke-linecap:round;stroke-dasharray:none;stroke-opacity:1"
     id="path1-8"
     transform="matrix(0.91522612,-0.40294062,0.44282743,0.89660686,0,0)"
     sodipodi:type="arc"
     sodipodi:cx="20.434196"
     sodipodi:cy="66.155426"
     sodipodi:rx="45.108727"
     sodipodi:ry="17.413813"
     sodipodi:start="5.4820792"
     sodipodi:end="3.9584067"
     sodipodi:arc-type="arc"
     d="M 51.825937,53.650109 A 45.108727,17.413813 0 0 1 62.176693,72.756174 45.108727,17.413813 0 0 1 20.079918,83.568702 45.108727,17.413813 0 0 1 -21.571723,72.502247 45.108727,17.413813 0 0 1 -10.444853,53.461303"
     sodipodi:open="true" />
</svg>
