<?xml version="1.0" encoding="UTF-8" standalone="no"?>
<svg
   t="1770566334004"
   class="icon"
   viewBox="0 0 1024 1024"
   version="1.1"
   p-id="2397"
   width="200"
   height="200"
   id="svg1"
   sodipodi:docname="browser.svg"
   inkscape:version="1.4.3 (0d15f75, 2025-12-25)"
   xmlns:inkscape="http://www.inkscape.org/namespaces/inkscape"
   xmlns:sodipodi="http://sodipodi.sourceforge.net/DTD/sodipodi-0.dtd"
   xmlns="http://www.w3.org/2000/svg"
   xmlns:svg="http://www.w3.org/2000/svg">
  <defs
     id="defs1" />
  <sodipodi:namedview
     id="namedview1"
     pagecolor="#ffffff"
     bordercolor="#000000"
     borderopacity="0.25"
     inkscape:showpageshadow="2"
     inkscape:pageopacity="0.0"
     inkscape:pagecheckerboard="true"
     inkscape:deskcolor="#d1d1d1"
     inkscape:zoom="2.0175"
     inkscape:cx="55.762082"
     inkscape:cy="96.406444"
     inkscape:window-width="1920"
     inkscape:window-height="1009"
     inkscape:window-x="-8"
     inkscape:window-y="1072"
     inkscape:window-maximized="1"
     inkscape:current-layer="svg1" />
  <path
     d="M 512,75.125509 C 271.09946,75.125509 75.125509,271.09787 75.125509,512 75.125509,752.90213 271.09946,948.87449 512,948.87449 752.90054,948.87449 948.87449,752.90213 948.87449,512 948.87449,271.09787 752.90213,75.125509 512,75.125509 Z m 0,826.089941 c -214.61976,0 -389.21545,-174.5941 -389.21545,-389.21545 0,-89.14305 30.43823,-171.14995 81.04577,-236.83681 -2.10971,7.94318 -6.42285,22.40293 -5.30604,26.71448 1.52032,5.39818 0.68312,8.19099 2.54499,12.90765 -1.14857,0.89917 -3.63002,2.57518 -2.60695,4.46725 3.19634,6.32911 7.04401,15.5146 11.94654,16.01025 -1.92383,9.58742 3.1026,5.83346 6.11306,13.8386 0.34156,1.58228 -0.40351,4.18923 1.49014,4.96448 8.25295,2.51322 19.73402,6.70245 23.45778,13.77664 -0.12392,-0.062 -0.37175,0 -0.49565,0 0,0.43369 -0.062,1.24072 -0.0938,1.67601 1.58227,5.61582 3.50611,6.79458 5.58563,10.98382 1.2725,2.88495 1.02467,9.49527 3.78572,11.2936 4.12727,2.60695 8.12904,7.53966 11.72889,12.72178 2.07953,3.04065 -4.03354,2.29558 -5.0884,2.29558 2.545,3.6618 8.09886,2.79282 11.44929,6.08129 2.63713,2.41949 4.53079,5.02644 7.26006,7.72553 -0.062,1.64424 -0.12391,4.34333 -0.15569,6.48481 0.46547,1.02467 0.86898,1.2725 2.54499,2.17166 2.88497,1.86189 5.02645,7.44752 9.8972,7.53967 0.062,0.77524 3.78571,5.24408 4.21942,5.27426 0.62115,-0.0938 1.76815,-2.85478 1.89205,-3.8159 -0.062,-1.52032 -3.01046,-6.20521 -5.18212,-4.18923 -4.77861,-3.04065 -6.14325,-9.30781 -8.00513,-15.35892 -1.9858,-5.27426 -6.57853,-7.63339 -8.40864,-13.4049 -1.21054,-4.18923 -1.61406,-6.57854 -5.02645,-9.92897 -2.54499,-2.48144 -5.67777,-2.20342 -7.41574,-5.83346 -1.79991,-4.00336 -4.03353,-7.01223 -3.97159,-12.16259 0.0318,-0.58938 0.062,-2.3893 0.65134,-3.19633 2.94692,2.91674 6.98205,2.51322 11.32538,4.31314 1.64424,0.83721 1.24072,6.14325 3.50612,8.37687 1.98579,2.10971 1.24072,6.20521 3.53789,8.50237 2.76104,2.66891 5.05821,5.0884 8.50237,8.34669 0.5592,-0.62116 0.52742,-0.46546 2.85478,-0.0938 -0.0318,6.08129 7.60161,6.26717 10.17679,10.70422 1.11681,2.76105 -0.80703,5.12017 1.42659,7.22987 2.35754,2.29558 6.67068,3.35043 9.43331,5.86366 5.6476,5.52368 11.63516,13.62095 14.8315,22.93035 0.34155,1.36464 2.57517,2.45126 2.63713,5.86365 0.21765,2.88496 -2.60695,4.31314 -2.76105,7.16791 0.12392,1.7062 1.76815,5.0884 4.03355,5.0884 1.33445,3.38221 9.18389,5.15036 12.50414,8.12904 0.74507,0.49565 2.2654,1.30269 3.01046,1.79993 3.50612,1.5521 5.33622,0.99289 9.09176,2.54499 3.47593,1.86188 4.71665,4.84057 8.53255,5.9256 3.32025,0.83722 5.05822,-0.71329 8.09886,0.49565 3.16457,1.39642 12.07045,7.3538 15.63852,7.53967 1.67601,-0.0318 4.3751,-0.52742 6.45304,0.49565 0.86898,0.37175 3.41238,2.29558 5.64759,2.32736 4.87075,-0.062 5.6476,-5.05822 10.73599,-5.18214 1.67601,0 3.75394,0.77526 6.23698,2.07953 0.4337,0.0318 1.30268,0 1.7062,0 7.69534,3.56807 9.74309,14.11819 18.74111,18.24388 5.77151,2.63713 9.52546,1.3964 15.14128,3.6618 3.6618,1.64424 6.54676,4.18923 11.97671,4.43706 1.45838,-0.062 3.38221,-1.17877 5.42996,-1.30269 0.40351,0.12392 1.30268,0.062 1.70619,0 1.83011,6.32913 6.4848,8.43883 11.16969,12.75198 1.02467,0.96112 2.85477,2.01756 3.69199,4.40528 1.42659,4.09549 -1.42659,7.44752 2.85478,10.11483 0.6831,-0.15568 2.14148,0.0318 2.85478,-0.0318 -0.43371,-0.34156 -0.40353,-1.70619 0,-2.29557 0.21763,-0.0318 9.77327,5.30604 10.82813,6.95027 0.80702,1.5521 0.99289,4.46724 5.12016,5.42995 -0.0938,0.37174 0.9929,1.58228 1.39642,1.52032 1.45836,0 6.39107,-1.55209 8.53255,0.24783 2.2654,2.17167 5.02644,6.85654 9.5874,6.9185 1.67602,0.0938 3.692,-1.30267 4.28138,-3.90962 -0.40352,-0.21765 -2.17167,-1.5521 -2.26539,-2.32735 0.21763,-1.08663 7.81925,-6.6405 9.96073,-6.70246 2.97869,0 1.11681,5.8017 4.31314,7.29184 -0.43369,0.74507 -1.64423,1.83011 -1.73796,2.57517 0.0318,0.58939 2.73086,1.61406 3.16456,1.9858 0.18587,0.0318 0.49565,-0.24783 0.68311,-0.2796 -0.12391,0.40351 -0.43369,1.21054 -0.46547,1.64423 0.062,4.65471 4.8088,3.59985 4.96448,9.15372 -0.062,2.54499 -1.36464,3.56807 -1.45836,6.64049 0.12392,1.52032 1.58228,3.47593 1.61406,5.58564 -0.0318,0.30978 0,0.96113 0,1.2725 -0.27961,0.52742 -0.93095,1.52032 -1.14859,2.04775 0,0.5592 1.67601,2.23362 2.76105,2.51322 -1.92384,6.88832 -8.84235,5.02643 -12.16259,10.76617 -2.23362,4.15746 -4.21941,10.67404 -11.91476,10.95363 1.02467,11.29361 -2.94692,15.94831 -3.07242,21.65786 -0.062,3.59985 0.34155,8.16082 4.34332,8.34669 1.45838,-0.062 1.64424,-1.27249 4.18924,0.18587 -1.33446,3.78572 -6.11307,4.90253 -8.7502,8.71843 -0.83721,0.71329 -3.07242,4.34332 -3.16457,7.35378 -0.0318,4.15746 3.78572,9.1839 6.76442,11.7289 0.86898,0.6831 3.19633,0.40351 4.12727,1.86187 0.58938,1.30268 1.30268,4.84057 3.19633,6.60872 0.74508,0.37175 2.66891,0.15569 3.53789,1.58228 2.26539,4.46724 3.87785,7.38398 5.73974,12.8457 1.76815,4.93271 3.16456,10.17679 5.18212,15.60675 1.21054,3.47593 4.93271,4.93271 4.87075,8.50237 0,2.94692 -1.21053,5.24408 0.83722,6.98205 4.80879,4.15745 8.16081,6.85654 15.66869,8.50237 3.59986,0.86898 5.0884,1.36464 8.25296,4.06531 2.79282,2.14148 5.70956,1.83011 9.52546,2.9787 4.87075,2.14148 8.37687,4.59274 10.58031,9.71132 0.49565,2.41949 1.08662,14.64562 0.89916,16.69337 -0.30979,3.16455 -2.91673,8.81216 -3.16456,11.79084 -0.34155,2.823 -0.46547,5.58564 -0.68311,8.81216 -0.77525,1.95402 -2.23362,5.64759 -2.32735,6.98205 0.0318,0.5592 -0.0938,1.17877 -0.12391,1.76815 -0.7133,6.54676 -4.80881,10.67403 -5.49191,17.93409 -0.15569,2.97869 -3.19634,5.77151 -2.01757,8.87411 -0.37174,4.65471 -0.58938,8.99803 -1.05485,13.2794 -1.89207,4.15746 -2.29558,7.01223 -4.28137,11.10773 -0.4337,0.65135 -1.5521,0.74507 -2.29558,1.33445 -1.17876,1.21055 -2.04775,3.44417 -3.16456,4.84057 -2.3893,2.29558 -6.0813,6.29895 -6.54677,10.0227 -0.30977,1.2725 -0.21763,5.30604 0.62116,5.33622 0,0 1.14859,0.40351 1.21054,1.5521 -0.21764,0.49565 -0.89916,0.93094 -2.45126,1.11681 -1.14859,2.823 -2.88496,4.03354 -3.13438,6.85654 -0.0938,1.89207 -1.05485,5.30605 0.93094,5.30605 1.4266,-0.30979 1.89207,-1.17877 3.72376,-1.86189 0.62116,-0.15568 1.49014,-0.0318 2.1097,-0.18587 -0.0318,0.96113 -0.1239,1.21054 -0.27959,2.14148 -2.66891,4.09551 -5.27426,8.09886 -7.88121,12.10063 -15.70207,1.96038 -31.62019,3.26306 -47.84809,3.26306 z M 474.42562,124.67661 c -0.52743,0.96112 -1.2725,1.98579 -3.19634,3.22652 -5.70955,3.69198 -10.58031,0.49565 -10.67403,-0.93094 0,-0.30979 0.49565,-0.30979 0.7133,-0.49566 4.40687,-0.58938 8.72001,-1.36464 13.15707,-1.79992 z m 145.14877,761.0862 c 0.40351,-0.34156 0.49565,-0.62116 0.99289,-0.96113 -1.11681,0 -2.23362,-0.21764 -1.98579,-1.64424 2.14147,-0.49565 2.66891,0.74508 5.46172,0.30979 0.37175,-0.18587 2.54499,-0.96113 2.57519,-2.1097 0.30977,-0.86899 -0.74508,-0.40351 -1.67602,-1.05486 -0.58938,0.2796 -2.26539,1.24073 -3.28847,1.45837 -1.83011,0.37173 -3.8159,-2.76105 -3.50612,-4.87075 0.062,-0.93095 0.86898,-1.9858 2.57517,-2.01757 4.56098,-0.83721 4.90253,1.08662 9.55724,0.46547 1.42658,-0.30979 4.93271,-1.67601 5.42995,-2.48145 0,-0.65134 0.12391,-0.83721 0.30978,-1.4266 1.95402,-2.26538 -0.62115,-3.90962 2.69909,-6.17502 2.41949,-1.73796 9.12194,-1.21054 12.78374,-2.57517 5.55387,-2.07952 9.55723,-2.23362 14.05624,-5.36799 2.29558,-1.9858 4.15745,-2.9787 6.64049,-5.58565 1.39642,-1.14858 1.58228,-2.07952 1.9858,-4.21941 0.65133,-1.9858 -2.91674,-0.93095 -3.28848,-2.63714 -0.4337,-2.35752 -0.12391,-3.28847 -1.52032,-4.40528 -0.74507,-0.40351 -3.63003,-0.40351 -3.3822,-2.01757 0.0937,-0.55919 1.30267,-1.02466 1.92383,-1.11681 3.47593,-0.62115 5.80169,0.86899 8.71843,0.30979 1.42659,-0.24783 5.67778,0.46547 9.27762,-0.12392 9.77328,-2.01756 13.15549,-9.99092 18.43134,-15.98007 4.59274,-4.90252 9.96074,-9.24585 14.79972,-14.45975 2.32735,-2.6991 0.46547,1.21054 2.32735,-1.39641 v 0.0938 c 2.88496,-3.93981 5.61582,-7.10596 9.92896,-9.89719 0.93094,-4.53078 1.5521,-9.43331 2.35754,-14.42799 0.43369,-3.38219 -0.68312,0.52744 2.63713,-2.35752 1.89207,-1.73797 4.59274,-2.14148 6.6405,-5.02644 4.71665,-5.95738 8.8741,-4.43706 14.70758,-9.80506 0.55919,-0.62116 0.86898,-1.67601 2.3893,-2.45125 2.91674,-1.89207 5.83346,-2.32736 9.5874,-3.2583 3.28849,-0.58938 7.6334,-4.15746 9.24586,-6.73263 0.52743,-0.68312 0.71329,-2.88496 1.76816,-4.28137 3.47593,-4.3751 4.74683,-6.39108 8.47059,-11.41911 0.49565,-0.71329 1.64424,-4.87075 2.20344,-6.64049 0.15568,-1.52032 2.14148,-3.78572 3.19633,-4.93271 0.34156,-0.52743 1.33445,-1.58228 1.33445,-2.54499 0.58939,-2.41949 3.63004,-13.00139 4.18923,-16.5075 0.77526,-4.77861 -2.07952,-6.08129 1.08663,-9.89719 2.1097,-2.32736 4.15745,-3.32025 6.4848,-6.57854 1.5521,-2.10971 2.23362,-2.66891 3.56808,-4.71666 6.26716,-9.58741 14.64562,-18.83326 16.94119,-34.34786 0.62116,-4.56098 0.18588,-8.65647 -3.07242,-9.30781 -2.41949,-0.43371 -3.97158,0.96112 -6.4848,0.62116 -2.94692,-0.74508 -7.60162,-5.73974 -9.18389,-8.84234 -2.2654,-0.93095 -4.84057,-1.95403 -8.62629,-2.32736 -2.20344,0.62116 -4.90253,1.4266 -7.53966,1.98579 -3.87785,0.62116 -4.12727,-2.823 -8.71842,-2.51321 -1.86189,0.27959 -2.69909,1.8301 -4.71666,2.94691 -0.49566,0.0937 -0.9929,0.062 -1.45837,0.15569 0.21765,-1.67601 0.52742,-3.56807 0.062,-5.55387 -0.30978,-1.55209 -2.01757,-1.02466 -3.75395,-2.10971 -2.6689,-1.3964 -10.05287,-5.08839 -13.86878,-4.84057 -3.78571,0.43371 -6.4848,5.33623 -8.96784,9.24585 -0.49565,0.99291 -1.83011,2.91674 -2.6689,2.94692 -0.58939,0.0938 -0.9929,-1.86187 -0.93094,-2.41949 -1.64424,-0.062 -3.32025,0.40352 -5.368,0.4337 -0.21765,-2.35753 -1.30268,-3.90963 -3.50612,-4.99626 -1.02466,-0.30977 -3.16456,-0.0318 -3.01046,-2.32734 0.74508,-7.10596 8.28473,-16.382 12.2865,-21.3163 -0.062,-1.89207 -2.6689,-2.17166 -3.81589,-4.43706 -0.93095,-2.63713 -3.5379,-9.92896 -3.47594,-12.81392 -3.84768,-0.77525 -8.37688,-8.191 -12.19436,-8.25295 -0.40351,0.0937 -1.02467,0.062 -1.4266,0.062 0.12392,0 -0.0318,-0.37174 0.0318,-0.49566 -2.2654,0.18588 -6.08129,-1.64423 -7.75731,-2.32734 -1.79991,0.0937 -4.28136,0.062 -6.26715,0.24782 -6.6405,-0.96112 -16.44555,0.21765 -18.39957,-6.67067 -1.05486,0 -3.32024,-0.58938 -3.69199,-1.36464 -3.16456,-6.14325 -5.02644,-5.21231 -9.86701,-9.86701 -2.23362,0.21764 -4.77861,0.12392 -7.10595,0.18587 -1.21055,-3.3822 0.062,-6.82636 -3.44417,-7.94317 -3.78572,-1.05486 -9.18389,-1.76815 -11.04578,-5.33622 -0.062,-0.49565 0.062,-1.49014 0.0318,-1.98579 0.65134,0.30977 3.1026,0.062 3.90963,-0.58939 0,0 -4.77861,-0.68311 -7.29184,-0.62116 -0.65134,0.30979 -6.23697,0.83722 -6.54676,1.36464 -2.07952,3.04065 -4.25119,3.07242 -8.25296,3.66181 -1.64423,0.062 -5.30603,-0.34156 -5.27426,-2.69909 -4.74684,0.12391 -9.55722,0.12391 -14.48994,0.18587 -1.27249,-0.12392 -3.1026,-1.92384 -3.19632,-4.53079 -3.87787,-0.68311 -10.1768,-2.10971 -11.20147,-6.20521 -1.24073,-0.0318 -3.59985,-0.0937 -4.8088,-0.0318 -0.21763,3.01046 4.0955,1.83011 5.15036,4.8088 -1.64423,0.12391 -4.25118,0.12391 -6.54676,0.062 -2.48145,1.64424 -6.73264,1.11681 -6.95029,4.93271 -0.15568,3.07242 3.01046,4.74685 3.22653,7.9114 -0.0938,0.74508 -1.79993,4.03355 -2.63714,4.15747 -3.32024,-0.12392 -4.74684,-4.96449 -4.46724,-7.66358 -0.15568,-1.70619 1.67601,-6.64049 2.57518,-10.51835 0.8372,-0.0318 2.73086,-1.05485 2.79281,-3.13437 0,0 -1.42658,-2.94692 -2.48144,-3.07242 -3.19633,0.24782 -4.40529,3.78571 -8.0369,4.96448 -7.13615,2.04775 -11.26343,3.13438 -18.11997,5.27426 -3.56807,1.17877 -6.08129,1.76815 -7.57143,5.98916 -0.40351,1.52032 -1.08663,5.24408 -2.57517,6.45303 -1.36464,0.52742 -4.34334,1.83011 -4.5308,4.40528 -0.40351,0.0938 -1.61404,0.89917 -1.70619,1.2725 0.12392,0.37174 0.0938,1.17877 0,1.5521 -1.3964,0.55919 -1.24072,0.40351 -3.3822,0.062 -0.5592,0.34155 -1.55209,1.36463 -2.10971,1.76815 0.4337,-0.52743 1.45837,-1.52033 1.89207,-2.01757 -4.46724,-3.19633 -4.84057,-10.61209 -13.06335,-10.8901 -6.85654,0.0938 -10.36266,5.12018 -17.87214,5.24409 -4.96448,-0.12391 -4.74683,-4.62293 -7.94316,-6.17502 -4.56098,-2.01757 -10.30071,-4.12728 -10.51836,-10.08465 -0.0318,-5.39818 0.15569,-10.33248 0.0318,-15.85458 1.73797,-2.57517 1.98579,-12.72179 1.98579,-15.11109 0.18587,-0.93093 0,-2.94691 0,-3.90963 -5.05821,-1.05485 -6.73264,-5.36799 -13.71468,-5.49191 -10.0227,0.0938 -17.62431,1.58228 -27.14976,1.58228 -1.2725,0.062 -3.32025,-1.02466 -3.44416,-2.85477 -0.0318,-0.30979 -0.0938,-1.02467 0,-1.30268 1.33445,-1.05485 5.08839,-2.57518 5.15035,-5.21232 -0.15569,-4.28136 -0.0938,-8.43882 0,-12.5359 0.55919,-0.0938 1.73796,-0.0318 2.29558,0 -0.0938,0.43369 0.062,1.3964 0,1.83009 1.79992,-2.57517 3.41239,-4.31313 3.41239,-8.59451 0.0937,-5.0582 4.77861,-9.5874 4.87075,-13.27939 0.0318,-0.5592 0.0318,-1.76815 0,-2.35753 -1.24073,0.0318 -5.70955,-0.37174 -6.54677,-0.49566 -0.80702,-0.46547 -3.16455,-0.96112 -5.70955,-0.80702 -7.81926,0.0318 -17.81017,-0.21765 -18.058,7.44752 -0.12392,3.90963 -4.6547,7.35378 -6.01934,10.42462 -0.18587,0.74506 -1.73797,4.03353 -4.00337,4.15745 -0.80702,0.0318 -2.29556,-1.5521 -5.39817,-1.5521 -5.86365,0 -10.17679,3.5379 -15.60675,3.66181 -1.67601,-0.062 -2.29557,-2.26539 -4.8088,-3.10261 -7.60161,-2.23362 -7.41574,-6.36089 -12.41041,-11.10772 -1.89206,-1.79993 -5.61582,-5.46173 -6.73263,-7.50948 -1.27249,-2.41949 0.30978,-3.78572 -0.80703,-6.17503 -0.49565,-0.7133 -2.60694,-3.01046 -2.20343,-5.15034 0.15569,-4.77863 0.15569,-9.43332 0.12391,-14.39621 0.86898,-3.93981 2.88496,-5.49191 2.88496,-10.30071 0.062,-1.14858 -0.68311,-2.91673 -1.08663,-4.06532 -0.0938,-0.12391 -0.24783,-0.49565 -0.15568,-0.62115 0.12391,-0.12391 0.62115,0.24782 0.74507,0.0937 0.0938,-0.5592 -1.33445,-1.95402 -1.36464,-2.54499 0.24783,-7.60162 3.59984,-14.48994 9.96074,-16.6616 2.79282,-1.11681 5.30604,0.80702 7.60162,-1.36464 3.47593,-2.97869 7.26006,-9.30781 15.5146,-9.52546 3.22652,0.062 4.77861,2.51323 7.88121,2.45127 1.24073,-0.062 2.9787,-2.01756 4.25119,-2.04774 5.73974,0.0318 12.16259,8.37687 20.35358,4.96448 -3.44415,-2.10971 -0.96111,-4.46725 -0.52742,-8.12905 -1.36463,0.27961 -1.11681,0.80703 -3.97158,0 4.87075,-1.49014 10.70421,-0.9929 15.26519,-2.04775 0.0318,0.5592 1.36463,2.04775 1.98579,2.01757 1.67601,0.062 3.04064,-2.14148 7.10596,-2.04775 6.82636,-0.0938 9.77328,5.98915 15.01736,5.86365 1.86188,0 3.6618,-3.28848 6.23697,-3.28848 12.59788,0.21765 9.24587,15.29697 13.68291,23.76756 2.29558,4.18923 4.93272,5.58565 8.56433,9.49528 1.58229,2.66889 1.4266,6.26715 5.67779,6.4848 4.84056,-0.0318 6.17502,-4.77861 6.17502,-10.23875 0.0318,-4.8088 -2.51322,-7.13615 -3.47594,-10.27052 0.062,-0.30978 -0.0318,-0.93094 0,-1.2725 -0.24782,-8.22277 -7.78748,-10.58031 -8.0369,-19.11286 0.12392,-18.58543 13.71469,-19.48619 26.96389,-25.78354 -0.21763,-0.12391 -0.55919,-0.37173 -0.77524,-0.49565 1.30268,-1.05485 1.27249,-2.1097 4.68488,-3.13437 1.70619,-0.21765 3.63003,-2.32736 6.88832,-2.85478 1.14858,-0.12392 2.57518,-1.89207 3.19633,-2.63713 -0.80703,-0.49566 -2.41949,-1.45838 -3.28848,-1.79993 0.062,-0.49565 -0.062,-1.42659 -0.0318,-1.95403 1.86187,-0.0318 3.75394,0.21765 4.25118,-2.3893 -1.02467,-0.30978 -2.73086,-0.4337 -3.87785,-2.23362 1.05485,0.0318 3.59984,-0.74507 3.63002,-2.88496 -0.0318,-0.65134 0.0318,-1.8301 -0.062,-2.41949 -0.43371,-0.24783 -1.45837,0 -1.92385,-0.062 -1.24071,-1.14858 -0.0318,-1.27249 -0.0937,-3.63002 -0.12392,-2.48145 -1.4266,-6.88833 -1.58228,-8.50237 0,0 -0.21765,-2.20344 0.21764,-3.16457 0.46547,2.60695 3.25829,6.05111 3.19633,8.06709 0.062,0.68311 0.062,1.95402 0.062,2.6689 0.062,0.34157 0.74508,1.4266 1.11681,1.49014 0.62116,-0.18586 5.98916,-8.62627 6.08129,-9.77328 -0.15569,-1.52032 -1.98579,-2.48145 -2.57517,-4.62292 0.34155,-0.30978 1.02466,-0.80703 1.33445,-1.17876 0.37174,0.43369 1.33445,1.95401 1.95402,1.98579 1.45837,-0.062 6.85654,-8.25296 7.32201,-10.0227 0,0 -2.54499,-1.95402 -2.51321,-2.91673 -0.24783,-0.52743 0.99289,-1.27249 1.55209,-1.61406 0.62116,0.0938 1.83011,0.15569 2.45126,0.34157 3.97159,-0.30979 6.42286,0.24782 10.20858,-0.83722 -1.36464,-1.05485 -4.2512,-0.0318 -6.73264,-0.24783 -0.7133,-0.062 -2.01756,-0.21764 -2.69909,-0.0937 5.39818,-2.91674 14.36602,-1.24073 19.67206,-4.40529 0.80703,0.77525 5.46173,0.4337 8.7502,-0.30978 -0.0938,-0.4337 -0.062,-1.17877 -0.062,-1.61406 0,0 -2.45127,1.4266 -2.88496,1.49014 -1.24072,0 -2.823,-3.35043 -2.823,-4.31314 -0.62116,-0.15569 -1.02467,-1.5521 -1.14859,-2.1097 -0.0937,-9.21567 9.24585,-5.89543 13.52881,-9.40155 2.57519,-0.93093 2.76105,-1.42659 5.92562,-1.27249 3.6618,0.2796 6.32911,-1.08663 8.06708,-3.35043 -0.4337,-0.30978 -0.89917,-1.24072 -1.24072,-1.67601 0,0 -0.0318,-0.5592 -0.18588,-0.65134 0.0318,-0.21765 0,-0.49565 -0.0318,-0.68312 0.4337,0.0938 1.95402,0.12392 2.57518,0.15569 1.24073,0.0318 7.97495,1.27249 10.23875,0.21764 2.29557,-1.33445 1.95402,-4.03354 5.7715,-4.03354 0.30979,2.97869 -0.0318,3.25829 4.06533,3.63003 -5.92562,-0.062 -14.64563,3.04065 -14.42799,7.94317 0.15569,1.70619 4.00337,5.8017 5.49191,5.98915 1.64424,-0.0938 6.39108,-5.42995 11.32538,-6.64048 1.05485,0 17.5004,-4.59275 17.77841,-6.39108 -0.34156,-2.29558 -6.4848,-3.16456 -8.16082,-3.28848 -7.22988,-0.65134 -18.86503,-7.57143 -19.70224,-13.03156 -1.36464,-0.2796 -3.59985,-0.86898 -5.46173,-0.9929 1.36464,-1.61405 10.14661,-1.86188 10.0227,-6.32912 -0.52743,-3.78572 -7.88122,-3.87786 -13.34136,-4.25119 -11.2936,-0.65134 -15.73065,5.368 -23.58169,5.98916 3.13437,-5.70956 8.40865,-3.56808 13.8386,-7.75731 3.47593,-2.97868 0.49565,-4.84057 5.86364,-5.95738 9.40155,-1.79992 14.73777,0.12392 24.4189,0.96113 12.50416,1.11681 22.09156,6.26716 28.6701,-0.86899 3.04064,-3.35043 20.66495,-0.86898 20.29163,-5.83346 -0.46548,-3.69199 -2.32735,-5.42996 -4.87076,-7.88122 -1.64424,-0.30978 0.65134,-1.2725 -2.14148,-2.54499 0.0318,-0.58938 -0.2796,-1.24072 -0.24782,-1.83011 -5.0884,1.30269 -15.73067,2.3893 -21.5959,1.83011 -0.58938,0.0937 -2.23362,-0.58938 -2.41949,-0.89917 4.53078,-1.11681 17.03492,-0.5592 18.36779,-3.41239 0,-0.74506 -1.86188,-1.27249 -2.20343,-1.95402 -5.73974,-0.2796 -17.53059,-3.28847 -18.33762,-8.53255 -0.12391,-0.062 -0.062,-0.30979 -0.062,-0.30979 -5.24408,-0.80702 -8.59451,-3.19633 -11.85281,-5.02643 1.05486,-0.4337 3.35043,-0.46547 3.22652,-2.29558 -0.0937,-1.4266 -2.3893,-2.97869 -2.17166,-4.28137 -2.35754,-0.80703 -10.36266,-4.43705 -8.62629,-7.044 1.9858,-3.19634 -7.84943,-4.87076 -9.33957,-8.84234 -0.62116,-0.062 -3.47594,-1.67602 -4.31315,-2.29558 -1.52033,0.55919 -5.83347,1.5521 -5.05821,3.41239 1.45836,3.19633 -2.69909,3.41238 -6.98205,4.77861 -2.88496,0.96112 -5.08839,3.16455 -7.69534,2.88496 -4.3751,-0.40352 -7.97495,-5.30604 -10.95364,-5.73974 -4.12727,-0.46547 -2.66891,-7.07419 -3.63003,-10.30071 -1.67601,-3.97158 -14.08643,-2.41949 -14.95541,-7.50947 -7.01223,-1.11681 -6.23697,-3.6618 -13.4049,-4.09551 -1.49014,-0.18586 -3.63002,-0.24782 -5.49191,-0.34155 -7.29182,-0.46547 -11.75906,-3.07242 -19.0509,-3.38221 -3.8159,-0.21763 -7.4777,0.55921 -7.41574,3.13438 0.18587,1.45837 9.27762,3.72376 1.11681,6.42286 -3.32025,0.99289 4.77861,4.74683 5.42995,6.7644 1.11681,4.68488 -5.95738,5.24408 -9.40154,5.8017 3.59984,3.19632 10.36266,4.25118 13.52881,7.10595 2.51323,2.57519 1.08663,6.57854 1.24072,11.29361 -0.18587,2.79281 -15.17304,9.12194 -20.54104,9.77328 9.43331,3.19633 6.05111,11.44929 9.7431,14.58366 -0.83722,0.86898 -3.66181,4.31315 -3.90964,5.92561 -3.28847,0.18587 -6.0511,0.96112 -8.68824,-0.40352 -6.7644,-3.53788 -16.53768,-9.71132 -16.81728,-14.08642 -0.18587,-4.68488 0.062,-8.53256 -7.50948,-11.20146 -5.61582,-1.17876 -11.16968,-1.95402 -16.75533,-2.79282 -9.96073,-3.72376 -20.66495,-6.32912 -32.4558,-8.53256 -1.64424,-0.40351 -8.00513,-2.63713 -11.72889,-2.6689 -4.00335,0.15568 -5.83346,2.35753 -9.74309,2.32735 -0.15568,-3.35043 -3.78572,-10.79795 -9.55723,-10.92187 -2.6689,0.15569 -3.87785,1.2725 -6.51658,1.61406 0.96113,-1.5521 0,-2.32736 0.27961,-6.20521 0.24782,-5.70955 3.90962,-10.73599 10.05287,-14.02447 2.14148,-1.58227 6.70246,-6.29893 8.65647,-6.79459 4.3751,-0.8372 8.40865,1.92384 8.59452,-1.27249 -0.062,-2.17166 -9.64937,-1.83011 -13.18726,-2.73086 1.86189,0.27959 -5.73974,-2.32736 15.20323,0.5592 5.46173,0.40351 2.17166,-2.76105 5.24408,-2.85478 1.52033,-0.0938 3.63004,-0.15568 5.58565,-0.062 6.29893,-0.0938 9.4635,-3.28847 13.52881,-4.80879 0,-0.68312 0.0318,-1.21055 0.0318,-1.89207 -8.68823,-1.05485 -17.03492,-0.21764 -20.91278,-3.8159 1.24073,-0.0938 3.28848,-0.18587 4.53079,-0.062 3.25829,0.71329 6.39108,2.60695 11.2936,2.69908 4.0955,-0.15569 13.09353,-0.86898 13.34135,-2.29557 -0.0937,-2.38931 -0.62115,-3.35043 -1.11681,-3.75394 4.96449,0.24782 6.98205,2.3893 10.36267,2.51321 2.79281,-0.18587 5.46172,0.18587 8.40864,0.15569 -1.14859,-0.62116 -0.34155,-2.85478 3.01046,-0.5592 1.79993,1.27249 14.08642,-3.75394 14.36603,-5.36799 -0.21765,-1.17877 -5.70956,-2.29558 -5.86366,-3.10261 0.0318,-0.62115 -1.27249,-1.55209 -0.0318,-2.60695 2.82776,-0.0747 5.58881,-0.4464 8.44359,-0.4464 9.96073,0 19.73401,0.74506 29.47711,1.49014 0.24783,0.062 1.24072,1.11681 2.04775,1.30268 3.19633,0 4.56097,-0.89917 7.66357,-0.65134 5.02644,0.58938 20.69514,6.39107 21.22258,9.0298 0.15568,1.55209 -4.65471,3.04064 -6.82637,3.90963 -1.61406,0.21764 -5.98916,-0.68312 -5.95738,1.05485 0.0318,0.89916 3.59984,2.04775 4.59274,2.48145 -3.01046,0.43369 -8.75019,0.74506 -10.92186,0.65133 -3.75395,-0.2796 -7.01224,-0.55919 -10.61208,-0.68311 -3.44416,-0.37174 -9.68114,1.11681 -9.77328,2.2654 0.21765,1.55209 8.0369,3.32024 10.89009,3.53789 2.97869,0.30977 4.34333,-1.14859 7.35379,-1.11681 1.83011,0.18587 1.7062,0.80702 4.25119,1.02467 1.83011,0.18586 3.63002,-0.62116 4.80879,-1.21055 7.29184,2.2654 11.32538,4.46724 19.57833,6.7946 -3.6618,3.13437 10.67404,4.40528 16.78552,6.29893 6.36089,2.14148 10.5803,2.17166 17.87214,4.31314 0.58938,0.2796 1.52032,1.49014 2.57517,1.58228 0.80702,0.062 2.23362,-0.24783 2.20344,-1.05485 -0.77525,-3.01046 -13.96251,-6.57854 -18.3678,-9.36977 0.96113,0.40351 2.57519,0.30979 3.63004,0.40351 2.76105,1.73797 18.11996,6.11307 22.61897,6.76442 0.86898,-1.21055 3.01046,-2.63715 2.91674,-3.75396 -0.27961,-1.21053 -4.43706,-2.17166 -4.53079,-2.94691 -0.15568,-0.71329 -0.24782,-1.33445 -0.2796,-2.07952 -1.17877,0.062 -2.85478,-0.34156 -4.00335,-0.49566 -0.7133,-1.83011 -2.10972,-0.93093 -6.76442,-2.01756 -1.52032,-0.68311 -5.02644,-3.13438 -5.67777,-4.49902 -0.89917,-0.1239 -2.20344,-0.21764 -3.10261,-0.37173 0,-0.55921 -0.0318,-0.9929 -0.18587,-1.52032 0.80703,0.34155 2.10971,0.49564 3.5379,0.40351 -0.12392,-0.43371 -0.0318,-0.74508 -0.15569,-1.17877 -1.86188,-0.18587 -2.545,-0.12392 -4.74684,-0.74508 0.15568,-0.1239 3.07242,-0.74506 4.56096,-0.58938 11.60498,1.45837 12.62806,8.12905 24.32518,9.83525 2.60695,0.24782 2.69909,-1.17877 2.57517,-2.4195 4.43706,0.46547 4.90253,-0.18587 4.84057,-0.49566 -0.12391,-0.49565 -0.24783,-0.80702 -0.24783,-1.30267 2.41949,0.37174 5.05822,0.46547 5.86366,-0.37174 8.99802,3.35043 17.90391,6.88831 26.59056,10.8599 0.4337,0.30979 1.05485,0.68312 1.92384,0.89917 4.71666,2.20343 9.40154,4.43705 14.02447,6.79459 -1.49014,-0.5592 -2.94692,-1.14858 -4.59274,-1.49014 -1.73797,-0.49565 -1.64425,-0.52743 -3.56808,-0.80703 1.2725,2.17167 11.32537,5.18213 18.39956,7.38398 1.08663,0.62115 2.04775,1.30267 3.13438,1.92383 -1.24073,1.30268 -2.91673,1.79993 -3.47593,3.87786 -2.91674,-1.33445 -2.85478,-1.21054 -5.49191,-1.08663 0.062,0 0.0318,0.12391 0.0318,0.12391 -3.81589,0.68312 -4.3751,2.10971 -6.82636,3.35043 0.12391,0.83722 0.24783,1.33446 0.49566,2.10972 1.33444,-0.062 2.57517,0.30978 4.06531,0.8372 -0.37175,1.21055 -1.70619,0.83722 -1.45837,1.92384 0.49565,2.51322 6.29894,4.62293 7.9114,6.76441 0.83721,0.96113 1.92384,3.13437 2.76104,3.56806 3.78572,1.73797 3.90964,-0.62115 7.47771,1.86189 -1.55209,0.34155 -2.88496,-0.0938 -2.57518,1.17877 0.58938,3.04064 8.71844,10.67403 13.24922,13.09352 0.49565,0.43369 0.68312,1.52032 1.86187,2.29558 3.59986,1.61405 5.02644,1.58228 7.07419,4.21941 2.2654,0.49566 5.0884,-0.062 7.75731,0.5592 4.80879,1.33445 5.46173,5.368 10.08465,6.70246 1.21054,0.062 1.33446,-0.30979 3.50612,0.21763 0.30978,0.7133 1.17877,1.08663 2.45126,1.58228 4.84057,1.08663 1.39641,-4.28136 5.24409,-4.34332 -0.68312,-1.11681 -0.99291,-3.72376 -1.4266,-5.27427 -0.68312,-2.51322 4.68488,-1.73796 6.17502,-3.13438 55.54025,46.2944 97.86307,107.79204 120.88556,177.97632 -0.18587,0.21764 -0.46548,0.30978 -0.62116,0.52743 -5.86366,10.89008 -10.33248,23.27031 -13.65273,37.23441 -1.36464,5.18212 -9.05998,9.18389 -8.84234,16.72355 2.32736,14.24211 10.42462,25.84708 10.51835,42.01144 0.24783,9.12194 -6.45304,26.21883 -14.79972,30.59393 2.01757,5.05821 8.34668,11.88298 8.78039,17.00315 -0.21764,3.07243 1.02467,5.98915 1.11681,11.51125 -0.7133,-0.0318 -0.24783,0.0318 -0.9929,0.0318 2.29558,2.41949 2.23362,2.69909 4.28137,4.84057 0.062,1.36464 15.88635,17.2208 18.3678,18.95877 4.34332,4.25118 6.2052,9.27762 8.191,14.83148 -27.64072,144.27818 -135.05942,260.2612 -274.50023,300.47272 z m 9.61918,-744.8583 c -0.49566,-0.062 -0.62116,0.0318 -1.24073,-0.062 -1.33444,-0.21765 -2.17166,-0.7133 -3.01046,-1.21055 1.42659,0.40351 2.85477,0.80702 4.25119,1.27249 z"
     fill="#ffffff"
     p-id="2398"
     id="path1"
     style="stroke-width:0.868785" />
</svg>
