<?xml version="1.0" encoding="UTF-8" standalone="no"?>
<svg
   t="1770806270539"
   class="icon"
   viewBox="0 0 1024 1024"
   version="1.1"
   p-id="2131"
   width="200"
   height="200"
   id="svg2"
   sodipodi:docname="create_dir.svg"
   inkscape:version="1.4.3 (0d15f75, 2025-12-25)"
   xmlns:inkscape="http://www.inkscape.org/namespaces/inkscape"
   xmlns:sodipodi="http://sodipodi.sourceforge.net/DTD/sodipodi-0.dtd"
   xmlns="http://www.w3.org/2000/svg"
   xmlns:svg="http://www.w3.org/2000/svg">
  <defs
     id="defs2" />
  <sodipodi:namedview
     id="namedview2"
     pagecolor="#ffffff"
     bordercolor="#000000"
     borderopacity="0.25"
     inkscape:showpageshadow="2"
     inkscape:pageopacity="0.0"
     inkscape:pagecheckerboard="0"
     inkscape:deskcolor="#d1d1d1"
     inkscape:zoom="1.00875"
     inkscape:cx="-134.32466"
     inkscape:cy="203.71747"
     inkscape:window-width="1920"
     inkscape:window-height="1009"
     inkscape:window-x="-7"
     inkscape:window-y="-8"
     inkscape:window-maximized="1"
     inkscape:current-layer="svg2" />
  <path
     d="M 475.51921,164.48079 H 207.99339 c -33.44073,0 -60.80132,28.43339 -60.80132,63.18531 v 568.6678 c 0,34.75192 27.36059,63.18531 60.80132,63.18531 h 608.01322 c 33.44073,0 60.80132,-28.43339 60.80132,-63.18531 V 354.03672 c 0,-34.75192 -27.36059,-63.18531 -60.80132,-63.18531 H 591.04172 c -12.16027,0 -21.28046,-6.31853 -27.3606,-15.79632 l -36.48079,-72.66311 c -9.1202,-25.27412 -30.40066,-37.91119 -51.68112,-37.91119 z M 207.99339,796.3339 V 227.6661 h 267.52582 l 42.56092,91.6187 9.1202,18.9556 c 6.08013,9.47779 15.20033,15.79632 27.3606,15.79632 H 816.00661 V 796.3339 Z"
     fill="#ffffff"
     p-id="2132"
     id="path1"
     style="stroke-width:0.72635" />
  <path
     d="m 512,417.22203 c -18.2404,0 -30.40066,12.63707 -30.40066,31.59266 v 94.77797 h -91.20198 c -18.2404,0 -30.40066,12.63706 -30.40066,31.59265 0,18.95559 12.16026,31.59266 30.40066,31.59266 h 91.20198 v 94.77796 c 0,18.95559 12.16026,31.59266 30.40066,31.59266 18.2404,0 30.40066,-12.63707 30.40066,-31.59266 v -94.77796 h 91.20198 c 18.2404,0 30.40066,-12.63707 30.40066,-31.59266 0,-18.95559 -12.16026,-31.59266 -30.40066,-31.59265 h -91.20198 v -94.77797 c 0,-18.95559 -12.16026,-31.59266 -30.40066,-31.59266 z"
     fill="#ffffff"
     p-id="2133"
     id="path2"
     style="stroke-width:0.72635" />
</svg>
