<?xml version="1.0" encoding="UTF-8" standalone="no"?>
<svg
   t="1770902726992"
   class="icon"
   viewBox="0 0 1024 1024"
   version="1.1"
   p-id="1593"
   width="200"
   height="200"
   id="svg2"
   sodipodi:docname="edit.svg"
   inkscape:version="1.4.3 (0d15f75, 2025-12-25)"
   xmlns:inkscape="http://www.inkscape.org/namespaces/inkscape"
   xmlns:sodipodi="http://sodipodi.sourceforge.net/DTD/sodipodi-0.dtd"
   xmlns="http://www.w3.org/2000/svg"
   xmlns:svg="http://www.w3.org/2000/svg">
  <defs
     id="defs2" />
  <sodipodi:namedview
     id="namedview2"
     pagecolor="#ffffff"
     bordercolor="#000000"
     borderopacity="0.25"
     inkscape:showpageshadow="2"
     inkscape:pageopacity="0.0"
     inkscape:pagecheckerboard="true"
     inkscape:deskcolor="#d1d1d1"
     inkscape:zoom="2.0175"
     inkscape:cx="57.249071"
     inkscape:cy="108.30235"
     inkscape:window-width="1920"
     inkscape:window-height="1009"
     inkscape:window-x="3832"
     inkscape:window-y="-8"
     inkscape:window-maximized="1"
     inkscape:current-layer="svg2" />
  <path
     d="M 478.45205,832.76724 H 224.1433 c -20.94307,0 -35.90241,-5.98374 -50.86175,-20.94307 -8.9756,-11.96747 -14.95933,-23.93494 -14.95933,-38.89428 V 425.87324 261.32052 c 0,-17.95121 5.98373,-32.91055 17.9512,-47.86988 11.96747,-11.96748 23.93495,-17.95121 38.89428,-20.94308 H 705.834 c 14.95933,0 29.91868,14.95933 29.91868,29.91868 0,20.94307 -14.95935,32.91054 -32.91055,32.91054 h -415.8696 c -11.96748,0 -23.93495,0 -35.90242,5.98374 -14.95933,2.99187 -20.94307,14.95933 -23.93494,26.9268 -2.99187,11.96748 -2.99187,23.93495 -2.99187,35.90241 v 397.91841 c 0,8.9756 2.99187,17.9512 5.98374,26.92681 5.98373,11.96747 14.95934,14.95933 26.92681,17.9512 8.9756,0 17.9512,2.99187 23.93494,2.99187 h 403.90213 c 8.97561,0 17.95121,-2.99187 26.92681,-5.98374 11.96747,-2.99186 17.95122,-14.95933 17.95122,-26.92681 V 725.06 665.22266 c 2.99186,-41.88615 0,-83.77231 2.99186,-122.66658 0,-8.97561 8.9756,-20.94308 17.9512,-23.93494 17.95121,-5.98374 35.90242,0 41.88615,20.94306 0,2.99188 2.99187,5.98375 2.99187,8.97561 v 224.39008 c 0,26.92681 -14.95934,50.86174 -47.86988,59.83735 -5.98374,2.99187 -11.96747,2.99187 -17.9512,2.99187 -80.78043,-2.99187 -164.55273,-2.99187 -251.3169,-2.99187 z"
     p-id="1594"
     fill="#ffffff"
     id="path1"
     style="stroke-width:0.701219" />
  <path
     d="m 415.62284,659.23891 c 0,-14.95933 5.98373,-23.93493 14.95933,-32.91053 l 167.54459,-167.5446 c 62.82923,-62.82922 125.65844,-125.65845 188.48767,-191.47953 17.9512,-17.95121 47.86988,-17.95121 62.82921,0 8.97561,8.9756 11.96748,20.94307 11.96748,32.91055 0,11.96747 -2.99187,20.94307 -11.96748,29.91867 l -41.88614,41.88614 c -65.82109,65.8211 -128.65031,131.64219 -194.4714,194.47141 -41.88614,41.88614 -83.77229,83.77229 -122.66657,125.65844 -8.97561,8.9756 -17.95121,11.96747 -29.91868,11.96747 -26.92681,0 -47.86988,-20.94307 -44.87801,-44.87802 z"
     p-id="1595"
     fill="#ffffff"
     id="path2"
     style="stroke-width:0.701219" />
</svg>
