<?xml version="1.0" encoding="UTF-8" standalone="no"?>
<svg
   t="1776266658349"
   class="icon"
   viewBox="0 0 1024 1024"
   version="1.1"
   p-id="3073"
   width="200"
   height="200"
   id="svg3"
   sodipodi:docname="gamepad.svg"
   inkscape:version="1.4.3 (0d15f75, 2025-12-25)"
   xmlns:inkscape="http://www.inkscape.org/namespaces/inkscape"
   xmlns:sodipodi="http://sodipodi.sourceforge.net/DTD/sodipodi-0.dtd"
   xmlns="http://www.w3.org/2000/svg"
   xmlns:svg="http://www.w3.org/2000/svg">
  <defs
     id="defs3" />
  <sodipodi:namedview
     id="namedview3"
     pagecolor="#000000"
     bordercolor="#000000"
     borderopacity="0.25"
     inkscape:showpageshadow="2"
     inkscape:pageopacity="0.0"
     inkscape:pagecheckerboard="0"
     inkscape:deskcolor="#d1d1d1"
     inkscape:zoom="2.0175"
     inkscape:cx="38.66171"
     inkscape:cy="70.136307"
     inkscape:window-width="1920"
     inkscape:window-height="1009"
     inkscape:window-x="3832"
     inkscape:window-y="-8"
     inkscape:window-maximized="1"
     inkscape:current-layer="svg3" />
  <path
     d="m 679.84854,470.4253 c -25.66386,14.81704 -35.49076,46.06628 -21.81937,69.74582 13.59501,23.54725 45.64747,30.79381 71.31133,15.97677 25.66387,-14.81704 35.49077,-46.06628 21.81938,-69.74582 -13.67139,-23.67954 -45.51519,-30.87018 -71.31134,-15.97677 z"
     style="fill:#ffffff;stroke:#ffffff;stroke-width:51.2;stroke-dasharray:none"
     id="path10" />
  <path
     d="m 237.35381,650.13047 c -13.58491,7.84325 -18.25,25.25362 -10.40675,38.83853 7.84325,13.58491 25.25362,18.25 38.83853,10.40675 L 446.1495,595.2426 c 13.5849,-7.84325 18.25,-25.25362 10.40675,-38.83853 -7.84325,-13.58491 -25.25363,-18.25 -38.83853,-10.40675 z"
     style="fill:#ffffff;stroke:#ffffff;stroke-width:51.2;stroke-dasharray:none"
     id="path7" />
  <path
     d="m 663.73327,284.55858 c -25.79615,14.89341 -35.67897,46.35131 -22.00758,70.03085 13.67139,23.67954 45.85614,30.84972 71.65229,15.95631 25.79615,-14.89342 35.67897,-46.35132 22.00758,-70.03086 -13.67139,-23.67954 -45.85614,-30.84972 -71.65229,-15.9563 z"
     style="fill:#ffffff;stroke:#ffffff;stroke-width:51.2;stroke-dasharray:none"
     id="path6" />
  <path
     d="m 408.26984,737.75935 c -13.58491,7.84325 -30.99529,3.17815 -38.83854,-10.40676 L 264.94801,546.38223 c -7.84325,-13.58491 -3.17816,-30.9953 10.40675,-38.83855 13.58491,-7.84325 30.99529,-3.17814 38.83854,10.40677 l 104.55332,181.09166 c 7.84325,13.58491 3.10813,30.87399 -10.47678,38.71724 z"
     fill="#ffffff"
     p-id="3075"
     id="path2"
     style="stroke:#ffffff;stroke-width:51.2;stroke-dasharray:none;stroke-opacity:1" />
  <path
     d="M 804.12085,681.82874 506.98343,853.38111 C 363.67338,936.1212 183.25432,893.12555 104.94964,757.49786 26.644958,621.87018 79.577641,444.26416 222.97915,361.47126 L 520.11657,189.91889 c 143.40151,-82.7929 323.67918,-39.83094 401.98386,95.79675 78.30467,135.62768 25.42193,313.3202 -117.97958,396.1131 z M 243.3044,396.67564 C 120.38883,467.64098 75.01203,619.89462 142.13032,736.14692 c 67.1183,116.25229 221.66222,153.08164 344.57779,82.1163 L 783.84553,646.71085 C 906.76111,575.74551 952.13791,423.49188 885.01961,307.23959 817.90132,190.98729 663.3574,154.15793 540.44183,225.12327 Z"
     fill="#ffffff"
     p-id="3076"
     id="path3"
     style="stroke:#ffffff;stroke-width:51.2;stroke-dasharray:none;stroke-opacity:1" />
</svg>
