<?xml version="1.0" encoding="UTF-8" standalone="no"?>
<!-- Created with Inkscape (http://www.inkscape.org/) -->

<svg
   width="200"
   height="200"
   viewBox="0 0 52.916665 52.916666"
   version="1.1"
   id="svg1"
   inkscape:version="1.4.3 (0d15f75, 2025-12-25)"
   sodipodi:docname="lf2_mod.svg"
   xmlns:inkscape="http://www.inkscape.org/namespaces/inkscape"
   xmlns:sodipodi="http://sodipodi.sourceforge.net/DTD/sodipodi-0.dtd"
   xmlns="http://www.w3.org/2000/svg"
   xmlns:svg="http://www.w3.org/2000/svg">
  <sodipodi:namedview
     id="namedview1"
     pagecolor="#ffffff"
     bordercolor="#000000"
     borderopacity="0.24705882"
     inkscape:showpageshadow="2"
     inkscape:pageopacity="0.0"
     inkscape:pagecheckerboard="true"
     inkscape:deskcolor="#d1d1d1"
     inkscape:document-units="mm"
     inkscape:zoom="2.8756734"
     inkscape:cx="85.892925"
     inkscape:cy="115.27735"
     inkscape:window-width="1920"
     inkscape:window-height="1009"
     inkscape:window-x="3832"
     inkscape:window-y="-8"
     inkscape:window-maximized="1"
     inkscape:current-layer="layer1"
     inkscape:antialias-rendering="true" />
  <defs
     id="defs1" />
  <g
     inkscape:label="图层 1"
     inkscape:groupmode="layer"
     id="layer1">
    <path
       id="text5"
       style="font-size:17.6389px;font-family:'Eras Bold ITC';-inkscape-font-specification:'Eras Bold ITC, Normal';fill:#ffffff;fill-opacity:1;stroke-width:0.321403;stroke-linecap:round;stroke-linejoin:round"
       d="m 3.5635028,50.187971 0.2615586,-2.113394 0.6486655,-7.334104 0.3243328,-4.833604 q 1.9250716,0.02092 3.0236173,0.02092 0.9102244,0 2.782984,-0.02092 0.136011,0.899762 0.230173,1.370567 0.09417,0.460343 0.460343,1.820449 0.376644,1.349642 0.596353,2.343565 0.230171,0.983461 0.680052,3.379337 0.460344,-1.642588 0.836988,-2.824833 0.376645,-1.182245 0.941612,-2.688822 0.564966,-1.506578 0.71144,-1.966921 0.156934,-0.470807 0.418492,-1.433342 1.569353,0.02092 3.07593,0.02092 1.02531,0 2.845759,-0.02092 -0.198785,3.525811 -0.261559,6.057698 -0.13601,4.959152 -0.13601,6.821449 0,0.387108 0.02092,1.401955 -1.381029,-0.02093 -1.935534,-0.02093 -0.8056,0 -1.977383,0.02093 0.0837,-0.941611 0.209246,-4.477883 0.125548,-3.546736 0.125548,-4.530197 0,-0.428955 -0.02092,-1.192707 l -1.370568,4.258174 -1.966921,5.942613 q -1.360104,-0.02093 -1.872759,-0.02093 -0.648665,0 -1.987846,0.02093 L 8.9411484,44.433681 8.187859,41.368214 Q 8.146011,41.190354 8.093704,40.928795 8.041397,40.667237 7.9263064,40.008109 l -0.2615591,2.898069 -0.3452567,5.942613 -0.031389,1.33918 q -1.4438032,-0.02093 -1.8413723,-0.02093 -0.544042,0 -1.8832222,0.02093 z M 29.63567,39.233895 q 1.297331,0 2.490038,0.397569 1.203169,0.397569 2.029695,1.150858 0.826525,0.742827 1.213633,1.747212 0.397568,0.993923 0.397568,2.144781 0,1.11947 -0.355719,2.134319 -0.345258,1.004384 -1.182245,1.893683 -0.836988,0.878838 -2.134319,1.318256 -1.286869,0.43942 -2.730673,0.43942 -1.328717,0 -2.552811,-0.387108 -1.224094,-0.387107 -2.05062,-1.129933 -0.816063,-0.742826 -1.234557,-1.778599 -0.408031,-1.035772 -0.408031,-2.176168 0,-1.140395 0.397568,-2.176168 0.408032,-1.035771 1.276407,-1.862297 0.878836,-0.826525 2.165705,-1.265944 1.286869,-0.449881 2.678361,-0.449881 z m -0.07324,3.07593 q -0.66959,0 -1.192707,0.345257 -0.523118,0.345258 -0.795138,1.014847 -0.261559,0.659128 -0.261559,1.443804 0,1.150858 0.575429,1.768137 0.575429,0.606816 1.443804,0.606816 0.659128,0 1.182245,-0.345257 0.523117,-0.355721 0.784676,-1.035773 0.27202,-0.690514 0.27202,-1.47519 0,-0.648666 -0.209246,-1.171784 -0.209247,-0.523117 -0.690515,-0.836987 -0.470805,-0.31387 -1.109009,-0.31387 z m 19.533202,7.878146 q -1.119472,-0.02093 -1.862299,-0.02093 -0.836986,0 -2.029694,0.02093 l 0.06278,-1.328717 q -0.408031,0.397568 -0.711438,0.648665 -0.303409,0.240634 -0.784677,0.470805 -0.470806,0.230172 -1.025309,0.35572 -0.544043,0.125549 -1.129935,0.125549 -1.004384,0 -1.883222,-0.366184 -0.868373,-0.366182 -1.485652,-1.035771 -0.617278,-0.680053 -0.920687,-1.600739 -0.303408,-0.931148 -0.303408,-1.925072 0,-1.412417 0.554505,-2.762059 0.554503,-1.349643 1.443804,-2.123856 0.899761,-0.774214 2.019231,-1.088084 1.129934,-0.324333 2.437728,-0.324333 0.868375,0 2.029694,0.156935 0.0837,-1.245019 0.115086,-3.483961 1.286869,0.02092 2.102932,0.02092 1.056696,0 2.134318,-0.02092 -0.303408,3.107317 -0.533579,7.585201 -0.230172,4.477883 -0.230172,6.695901 z M 45.360574,42.11104 q -0.554505,-0.125549 -1.046235,-0.125549 -1.014848,0 -1.726286,0.39757 -0.71144,0.387107 -1.098548,1.224095 -0.376643,0.826525 -0.376643,1.632125 0,0.606816 0.209246,1.098547 0.219709,0.481267 0.659128,0.763752 0.44988,0.282483 0.993923,0.282483 0.575429,0 1.046235,-0.324333 0.481268,-0.324334 0.774214,-0.952074 0.303407,-0.627741 0.408031,-1.485653 0.115086,-0.868375 0.156935,-2.510963 z M 10.045942,34.317169 q 0.04185,-0.491731 0.06278,-1.297332 0.03139,-0.816063 0.07324,-1.663513 1.088083,-0.889299 1.998308,-1.726287 1.475191,-1.360105 2.615586,-2.552813 0.910224,-0.952072 1.527503,-1.747211 0.355719,-0.470806 0.470806,-0.784676 0.0837,-0.219708 0.0837,-0.449881 0,-0.303407 -0.13601,-0.523117 -0.136011,-0.230171 -0.428957,-0.387107 -0.292945,-0.156935 -0.711439,-0.251097 -0.418494,-0.09415 -0.952074,-0.09415 -0.732364,0 -1.548427,0.125548 -0.805601,0.125548 -2.207554,0.481268 l 0.27202,-1.496116 q 0.09417,-0.449881 0.272021,-1.726286 2.751597,-0.460344 5.157936,-0.460344 1.098547,0 2.102932,0.198785 1.004386,0.198784 1.799523,0.680052 0.795139,0.470806 1.192708,1.109008 0.397569,0.627741 0.397569,1.360106 0,0.481267 -0.115086,0.952073 -0.115085,0.449881 -0.428955,1.056697 -0.39757,0.753289 -0.983461,1.485653 -0.868375,1.098547 -2.00877,2.270329 -1.088085,1.109008 -2.615587,2.490039 l 1.150857,0.01045 q 0.408032,0 1.611202,-0.02093 1.213632,-0.02093 1.684438,-0.04185 0.470805,-0.02093 1.161321,-0.09417 -0.03139,0.502193 -0.104627,1.255481 -0.06278,0.753289 -0.136011,1.841374 -2.605123,-0.02093 -5.450881,-0.02093 -3.43165,0 -5.806603,0.02093 z m 14.176479,0 q 0.0837,-1.401955 0.146472,-3.78737 l 2.155244,0.03139 q 0.345257,0 1.820448,-0.03139 -0.0837,1.140395 -0.188322,3.78737 l -1.820449,-0.02093 q -0.198784,0 -2.113393,0.02093 z M 36.881858,19.764045 q 1.684438,0 3.034081,0.659128 1.360105,0.659128 2.113393,2.259867 0.763752,1.590276 0.763752,3.755982 0,1.6949 -0.470806,3.358413 -0.460344,1.663512 -1.265944,2.67836 -0.795139,1.004386 -2.102932,1.558889 -1.307793,0.554505 -2.793445,0.554505 -1.265944,0 -2.374953,-0.408031 -1.109008,-0.408032 -1.945997,-1.328719 -0.836987,-0.920685 -1.171782,-2.176168 -0.334795,-1.265943 -0.334795,-2.699285 0,-1.736748 0.460343,-3.410724 0.470805,-1.673975 1.307793,-2.730673 0.836987,-1.056696 2.102931,-1.558889 1.265944,-0.512655 2.678361,-0.512655 z m -0.07324,3.096854 q -0.49173,0 -0.878838,0.292946 -0.470805,0.355719 -0.742827,0.972998 -0.334794,0.742827 -0.502191,1.705363 -0.188323,1.056697 -0.188323,2.32264 0,1.109009 0.209247,1.841373 0.209247,0.721902 0.627741,1.119472 0.428956,0.397568 0.993923,0.397568 0.31387,0 0.606816,-0.13601 0.303407,-0.13601 0.62774,-0.544042 0.334795,-0.408031 0.585892,-1.171783 0.251096,-0.763751 0.366182,-1.590276 0.115085,-0.836989 0.115085,-1.694901 0,-1.778598 -0.49173,-2.646973 -0.49173,-0.868375 -1.328717,-0.868375 z M 8.8114555,18.173168 q 0.2615591,-2.469114 0.3766446,-4.028004 0.2197097,-2.845757 0.3243327,-5.6496657 0.1150855,-2.814371 0.1150855,-4.6034321 1.4228787,0.020925 2.5214247,0.020925 0.742827,0 2.134319,-0.020925 l -0.251096,3.7873691 -0.31387,5.9216877 -0.04185,1.454266 q 1.799524,0.03139 2.343565,0.03139 2.751597,0 4.164014,-0.07324 l -0.230172,3.159629 q -2.751596,-0.02092 -5.241635,-0.02092 -3.368875,0 -5.9007635,0.02092 z m 12.7012895,0 q 0.219708,-2.123856 0.303407,-3.410725 0.125548,-1.904147 0.240634,-5.2311726 0.115086,-3.3374881 0.115086,-4.4883462 v -1.150858 q 3.149165,0.020925 5.858912,0.020925 2.730673,0 5.252098,-0.020925 -0.167398,2.4063396 -0.167398,3.1491661 l -0.910222,-0.031387 -0.732365,-0.010459 -0.732364,-0.010459 h -2.061081 q -0.355721,0 -2.082008,0.020925 l -0.09416,2.4377263 1.517041,0.031389 h 1.694899 q 0.732364,0 2.238943,-0.031389 -0.115086,1.9773835 -0.115086,3.0968555 -1.684437,-0.05231 -2.500499,-0.05231 -1.381031,0 -3.013157,0.05231 l -0.104626,3.766444 -0.01045,1.401953 v 0.460344 l -2.249404,-0.02092 q -0.261559,0 -2.448189,0.02092 z m 12.868685,0 q 0.04185,-0.491731 0.06278,-1.297331 0.03139,-0.816063 0.07324,-1.663513 1.088084,-0.8893 1.998308,-1.726287 1.475191,-1.360104 2.615586,-2.552812 0.910224,-0.9520737 1.527503,-1.7472119 0.355719,-0.4708055 0.470805,-0.7846759 0.0837,-0.2197092 0.0837,-0.4498808 0,-0.3034081 -0.136009,-0.5231173 -0.136011,-0.2301716 -0.428957,-0.3871068 -0.292946,-0.1569351 -0.71144,-0.2510962 -0.418493,-0.094162 -0.952073,-0.094162 -0.732364,0 -1.548428,0.1255481 -0.8056,0.1255481 -2.207555,0.4812678 l 0.272022,-1.4961153 q 0.09416,-0.4498809 0.272021,-1.7262871 2.751597,-0.4603432 5.157936,-0.4603432 1.098546,0 2.102932,0.1987845 1.004385,0.1987847 1.799523,0.6800525 0.795138,0.4708056 1.192708,1.1090086 0.397569,0.6277408 0.397569,1.360105 0,0.481268 -0.115086,0.9520735 -0.115085,0.4498809 -0.428957,1.0566969 -0.397568,0.7532889 -0.98346,1.4856526 -0.868375,1.098548 -2.008771,2.27033 -1.088083,1.109009 -2.615586,2.490038 l 1.150858,0.01045 q 0.408032,0 1.611202,-0.02093 1.213632,-0.02092 1.684438,-0.04185 0.470805,-0.02092 1.161319,-0.09416 -0.03139,0.502191 -0.104626,1.25548 -0.06278,0.75329 -0.136011,1.841373 -2.605124,-0.02092 -5.450882,-0.02092 -3.431649,0 -5.806602,0.02092 z" />
  </g>
</svg>
