<?xml version="1.0" encoding="UTF-8" standalone="no"?>
<!-- Created with Inkscape (http://www.inkscape.org/) -->

<svg
   width="200"
   height="200"
   viewBox="0 0 52.916665 52.916666"
   version="1.1"
   id="svg1"
   sodipodi:docname="lfw_mod.svg"
   inkscape:version="1.4.3 (0d15f75, 2025-12-25)"
   xmlns:inkscape="http://www.inkscape.org/namespaces/inkscape"
   xmlns:sodipodi="http://sodipodi.sourceforge.net/DTD/sodipodi-0.dtd"
   xmlns="http://www.w3.org/2000/svg"
   xmlns:svg="http://www.w3.org/2000/svg">
  <sodipodi:namedview
     id="namedview1"
     pagecolor="#ffffff"
     bordercolor="#000000"
     borderopacity="0.24705882"
     inkscape:showpageshadow="2"
     inkscape:pageopacity="0.0"
     inkscape:pagecheckerboard="true"
     inkscape:deskcolor="#d1d1d1"
     inkscape:document-units="mm"
     inkscape:zoom="2.8756734"
     inkscape:cx="85.892925"
     inkscape:cy="115.27735"
     inkscape:window-width="1920"
     inkscape:window-height="1009"
     inkscape:window-x="3832"
     inkscape:window-y="-8"
     inkscape:window-maximized="1"
     inkscape:current-layer="layer1"
     inkscape:antialias-rendering="true" />
  <defs
     id="defs1" />
  <g
     inkscape:label="图层 1"
     inkscape:groupmode="layer"
     id="layer1">
    <text
       xml:space="preserve"
       style="font-size:3.175px;writing-mode:lr-tb;direction:ltr;white-space:pre;inline-size:28.4642;opacity:1;fill:#ffffff;stroke-width:0.264583;stroke-linecap:round;stroke-linejoin:round"
       x="17.481413"
       y="16.101301"
       id="text1"
       transform="matrix(7.7502507,0,0,12.94514,-132.15082,-171.84502)" />
    <path
       id="text2"
       style="font-style:normal;font-variant:normal;font-weight:normal;font-stretch:normal;font-size:17.6389px;font-family:'Eras Bold ITC';-inkscape-font-specification:'Eras Bold ITC, Normal';font-variant-ligatures:normal;font-variant-caps:normal;font-variant-numeric:normal;font-variant-east-asian:normal;text-align:center;writing-mode:lr-tb;direction:ltr;text-anchor:middle;opacity:1;fill:#ffffff;fill-opacity:1;stroke:none;stroke-width:0.327792;stroke-linecap:round;stroke-linejoin:round;stroke-opacity:1"
       d="m 3.6099285,9.0924281 c 0,1.2164179 -0.038911,2.7811839 -0.1171601,4.6947309 -0.071136,1.906434 -0.1816089,3.827089 -0.3309936,5.761977 -0.078249,1.05992 -0.2062928,2.42949 -0.3841317,4.108289 1.7214806,-0.01423 3.7274989,-0.02177 6.018065,-0.02177 1.6930259,0 3.4749679,0.0075 5.3458339,0.02177 l 0.23496,-3.222866 c -0.96033,0.04979 -2.375711,0.07491 -4.246577,0.07491 -0.369905,0 -1.1670483,-0.01067 -2.3905804,-0.03201 L 7.7822406,18.99407 8.1023502,12.954879 8.3584384,9.0924331 c -0.9461038,0.014228 -1.6716845,0.021128 -2.1767471,0.021128 -0.7469236,0 -1.6043187,-0.0069 -2.5717625,-0.021128 z m 12.7941495,0 v 1.1735229 c 0,0.782492 -0.03955,2.308346 -0.117801,4.57757 -0.07825,2.262111 -0.159842,4.040283 -0.245204,5.33495 -0.05691,0.874967 -0.159841,2.034902 -0.309226,3.478954 1.486734,-0.01423 2.319017,-0.02177 2.496856,-0.02177 l 2.293908,0.02177 v -0.469921 l 0.01088,-1.429611 0.106276,-3.841317 c 1.109714,-0.03557 2.134705,-0.05314 3.073694,-0.05314 0.554858,0 1.404712,0.01757 2.549994,0.05314 0,-0.761151 0.03891,-1.813742 0.117161,-3.158203 -1.024352,0.02134 -1.785074,0.03201 -2.283023,0.03201 h -1.729234 l -1.54677,-0.03201 0.09603,-2.486614 c 1.173736,-0.01423 1.881747,-0.02113 2.123609,-0.02113 h 2.101841 l 0.747136,0.01088 0.746496,0.01024 0.928318,0.03201 c 0,-0.505063 0.05712,-1.575224 0.170938,-3.2113419 -1.714367,0.014228 -3.500078,0.021128 -5.356717,0.021128 -1.842411,0 -3.833988,-0.0069 -5.975169,-0.021128 z m 12.441388,0 0.629976,2.6889239 1.738836,7.970733 c 0.177839,0.832286 0.309652,1.479406 0.395015,1.941787 l 0.363005,1.963553 c 1.031466,-0.01423 1.924002,-0.02177 2.678039,-0.02177 0.711355,0 1.603892,0.0075 2.678038,0.02177 l 1.71835,-6.231898 c 0.09959,-0.377018 0.195623,-0.75048 0.288099,-1.120384 l 0.373248,-1.653687 c 0.07113,0.682901 0.124487,1.188176 0.160054,1.515399 0.04268,0.320111 0.08913,0.632679 0.138928,0.938563 l 0.938563,5.089745 0.245844,1.462262 c 1.017239,-0.01423 1.945555,-0.02177 2.784955,-0.02177 0.796719,0 1.728165,0.0075 2.795199,0.02177 l 0.661987,-2.166504 4.13966,-12.3984929 c -0.782491,0.00711 -1.489861,0.010244 -2.122968,0.010244 -0.561972,0 -1.273752,-0.00313 -2.134492,-0.010244 l -0.60821,2.0698299 -1.301565,4.097406 c -0.270316,0.825172 -0.447941,1.376259 -0.533303,1.653687 -0.08536,0.277429 -0.167595,0.551727 -0.245845,0.822043 l -0.416142,1.568537 -0.92832,-5.719721 -0.672229,-4.4917819 c -0.910535,0.014228 -1.732149,0.021128 -2.464846,0.021128 -0.675788,0 -1.500532,-0.0069 -2.47509,-0.021128 l -0.87518,3.8093069 -1.269555,4.929691 -0.352121,1.493633 c -0.227633,-1.330236 -0.43414,-2.457518 -0.619093,-3.38228 l -0.896307,-4.300355 c -0.113817,-0.540631 -0.266971,-1.390485 -0.459037,-2.5499959 -0.825173,0.014228 -1.550753,0.021128 -2.176746,0.021128 -0.554858,0 -1.28044,-0.0069 -2.176747,-0.021128 z M 3.2104315,27.60886 2.8794381,32.538551 2.2180911,40.018878 1.9511196,42.173857 c 0.9105352,-0.01423 1.5507539,-0.02113 1.9206589,-0.02113 0.2703151,0 0.8967336,0.0069 1.8784043,0.02113 l 0.032011,-1.365589 0.3521204,-6.060959 0.2663315,-2.955254 c 0.078249,0.448155 0.1353709,0.760724 0.1709385,0.938563 0.035568,0.177838 0.067579,0.327223 0.096033,0.448153 l 0.7682633,3.126833 1.3124504,5.868253 c 0.9105349,-0.01423 1.5865351,-0.02113 2.0275761,-0.02113 0.348564,0 0.985013,0.0069 1.909775,0.02113 l 2.005808,-6.06032 1.398239,-4.343249 c 0.01423,0.51929 0.02113,0.924761 0.02113,1.216417 0,0.668674 -0.04268,2.208969 -0.128044,4.620466 -0.08536,2.404381 -0.156285,3.926466 -0.213194,4.566686 0.796719,-0.01423 1.468949,-0.02113 2.016693,-0.02113 0.377018,0 1.034808,0.0069 1.973796,0.02113 -0.01423,-0.690015 -0.02113,-1.16641 -0.02113,-1.42961 0,-1.266214 0.04581,-3.585442 0.138288,-6.957267 0.04268,-1.721481 0.131814,-3.780851 0.266972,-6.17812 -1.237759,0.01423 -2.204987,0.02177 -2.902116,0.02177 -1.024352,0 -2.070042,-0.0075 -3.137076,-0.02177 -0.177839,0.654447 -0.320323,1.142153 -0.427027,1.462262 -0.09959,0.312996 -0.341237,0.981456 -0.725369,2.005808 -0.384131,1.024352 -0.70424,1.938229 -0.960329,2.742061 C 11.736235,34.622823 11.451267,35.58315 11.13827,36.69998 10.832389,35.070975 10.601412,33.922351 10.444913,33.253677 10.295529,32.577889 10.092792,31.781386 9.8367042,30.863737 9.5877298,29.938975 9.4314462,29.320097 9.3674235,29.0071 9.3034021,28.68699 9.2249388,28.220627 9.1324636,27.60886 7.8591364,27.62309 6.9132494,27.63063 6.294369,27.63063 c -0.746923,0 -1.7750431,-0.0075 -3.0839375,-0.02177 z m 41.6354025,0 c -0.02134,1.522302 -0.06025,2.706706 -0.11716,3.553219 -0.789605,-0.106703 -1.479405,-0.160055 -2.06983,-0.160055 -0.889195,0 -1.718349,0.110474 -2.486613,0.330994 -0.761151,0.213407 -1.44718,0.583097 -2.058947,1.109501 -0.604651,0.526403 -1.095486,1.248854 -1.472505,2.166503 -0.377018,0.917648 -0.565953,1.856636 -0.565953,2.816966 0,0.675788 0.103572,1.329807 0.309866,1.962914 0.206293,0.625993 0.518862,1.170179 0.938562,1.63256 0.4197,0.455267 0.924974,0.807388 1.515399,1.056362 0.597539,0.248975 1.237757,0.373888 1.920659,0.373888 0.39836,0 0.782491,-0.04268 1.152396,-0.128044 0.377018,-0.08536 0.725369,-0.206506 1.045478,-0.363004 0.327224,-0.156498 0.593981,-0.316553 0.800274,-0.480165 0.206295,-0.170725 0.448581,-0.391031 0.72601,-0.661347 l -0.06402,1.354705 c 0.810945,-0.01423 1.500745,-0.02113 2.06983,-0.02113 0.505063,0 1.138381,0.0069 1.899532,0.02113 0,-1.508074 0.07782,-3.783981 0.23432,-6.828583 0.156499,-3.044602 0.337894,-5.623687 0.544187,-7.736414 -0.732696,0.01423 -1.458278,0.02177 -2.176747,0.02177 -0.554857,0 -1.269768,-0.0075 -2.144736,-0.02177 z m -16.303832,3.393164 c -0.946104,0 -1.856851,0.153155 -2.731818,0.459038 -0.874967,0.298769 -1.611219,0.729352 -2.208758,1.291323 -0.590425,0.561971 -1.024137,1.19465 -1.301566,1.898892 -0.270315,0.704242 -0.405899,1.444263 -0.405899,2.219641 0,0.775377 0.138713,1.515399 0.416143,2.219642 0.284542,0.704242 0.704454,1.308679 1.259311,1.813742 0.561972,0.505062 1.259312,0.889193 2.091598,1.152395 0.832286,0.263201 1.699711,0.395015 2.603133,0.395015 0.98167,0 1.909988,-0.149384 2.784956,-0.448154 0.882081,-0.298769 1.607662,-0.746922 2.176746,-1.344461 0.569085,-0.604652 0.971427,-1.248641 1.206173,-1.931543 0.241862,-0.690014 0.362365,-1.415596 0.362365,-2.176747 0,-0.78249 -0.134943,-1.511841 -0.405259,-2.187629 -0.263202,-0.682902 -0.675574,-1.276669 -1.237544,-1.781731 -0.561972,-0.512177 -1.252412,-0.903208 -2.07047,-1.173523 -0.810946,-0.270316 -1.657031,-0.4059 -2.539111,-0.4059 z m 14.970255,2.806723 c 0.334337,0 0.690228,0.04268 1.067246,0.128045 -0.02845,1.116828 -0.08181,1.970452 -0.160055,2.560878 -0.07114,0.583311 -0.20985,1.087946 -0.416143,1.514759 -0.199179,0.426813 -0.462807,0.750693 -0.790031,0.971214 -0.32011,0.22052 -0.67536,0.330993 -1.066606,0.330993 -0.369905,0 -0.708225,-0.09603 -1.014107,-0.288099 -0.29877,-0.192065 -0.522846,-0.451924 -0.672231,-0.779147 -0.142271,-0.334337 -0.213193,-0.707799 -0.213193,-1.120385 0,-0.547744 0.128043,-1.102599 0.384131,-1.664571 0.263202,-0.569084 0.636662,-0.985227 1.120385,-1.248427 0.483721,-0.270316 1.070588,-0.40526 1.760604,-0.40526 z M 28.467095,34.1391 c 0.433928,0 0.811158,0.106704 1.131269,0.32011 0.327223,0.213407 0.56197,0.498376 0.704241,0.854053 0.142271,0.355679 0.213193,0.75361 0.213193,1.19465 0,0.533516 -0.09226,1.035022 -0.277215,1.504516 -0.177839,0.462381 -0.444597,0.814501 -0.800274,1.056363 -0.355678,0.234747 -0.75802,0.352121 -1.206174,0.352121 -0.590425,0 -1.08126,-0.205866 -1.472505,-0.618452 -0.391246,-0.4197 -0.586441,-1.021008 -0.586441,-1.8035 0,-0.533516 0.08849,-1.02435 0.266332,-1.472504 0.184951,-0.455269 0.455479,-0.800488 0.811157,-1.035235 0.355678,-0.234748 0.76115,-0.352122 1.216417,-0.352122 z" />
    <text
       xml:space="preserve"
       style="font-style:normal;font-variant:normal;font-weight:normal;font-stretch:normal;font-size:31.4681px;font-family:'Eras Bold ITC';-inkscape-font-specification:'Eras Bold ITC, Normal';font-variant-ligatures:normal;font-variant-caps:normal;font-variant-numeric:normal;font-variant-east-asian:normal;writing-mode:lr-tb;direction:ltr;fill:#000000;fill-opacity:1;stroke:none;stroke-width:0.327792;stroke-linecap:round;stroke-linejoin:round;stroke-opacity:1"
       x="-2.3178937"
       y="51.766853"
       id="text2-8"><tspan
         sodipodi:role="line"
         id="tspan2-2"
         style="font-style:normal;font-variant:normal;font-weight:normal;font-stretch:normal;font-size:31.4681px;font-family:'Eras Bold ITC';-inkscape-font-specification:'Eras Bold ITC, Normal';font-variant-ligatures:normal;font-variant-caps:normal;font-variant-numeric:normal;font-variant-east-asian:normal;stroke-width:0.327792"
         x="-2.3178937"
         y="51.766853" /></text>
  </g>
</svg>
