<?xml version="1.0" encoding="UTF-8" standalone="no"?>
<svg
   t="1770566485858"
   class="icon"
   viewBox="0 0 1024 1024"
   version="1.1"
   p-id="3600"
   width="200"
   height="200"
   id="svg2"
   sodipodi:docname="markdown.svg"
   inkscape:version="1.4.3 (0d15f75, 2025-12-25)"
   xmlns:inkscape="http://www.inkscape.org/namespaces/inkscape"
   xmlns:sodipodi="http://sodipodi.sourceforge.net/DTD/sodipodi-0.dtd"
   xmlns="http://www.w3.org/2000/svg"
   xmlns:svg="http://www.w3.org/2000/svg">
  <defs
     id="defs2" />
  <sodipodi:namedview
     id="namedview2"
     pagecolor="#000000"
     bordercolor="#000000"
     borderopacity="0.25"
     inkscape:showpageshadow="2"
     inkscape:pageopacity="0.0"
     inkscape:pagecheckerboard="0"
     inkscape:deskcolor="#d1d1d1"
     inkscape:zoom="1.4265879"
     inkscape:cx="-56.778834"
     inkscape:cy="88.673118"
     inkscape:window-width="1920"
     inkscape:window-height="1009"
     inkscape:window-x="3832"
     inkscape:window-y="-8"
     inkscape:window-maximized="1"
     inkscape:current-layer="svg2" />
  <path
     d="m 343.03511,214.11469 c -4.19649,-9.71822 -13.69383,-15.90253 -24.29552,-15.90253 h -77.30395 c -14.57733,0 -26.50422,11.9269 -26.50422,26.50421 v 600.76218 c 0,14.57731 11.92689,26.50421 26.50422,26.50421 h 59.85534 c 14.57732,0 26.50421,-11.9269 26.50421,-26.50421 v -388.5076 l 147.54013,331.74441 c 4.1965,9.49734 13.69384,15.68165 24.29552,15.68165 h 53.22931 c 10.38081,0 19.87815,-6.18431 24.29551,-15.68165 L 724.6958,436.08747 v 389.39108 c 0,14.57731 11.9269,26.50421 26.5042,26.50421 h 60.07622 c 14.57733,0 26.50422,-11.9269 26.50422,-26.50421 V 224.71637 c 0,-14.57731 -11.92689,-26.50421 -26.50422,-26.50421 h -76.64135 c -10.60169,0 -20.09904,6.18431 -24.29553,15.90253 L 526.79767,635.97341 Z"
     p-id="3602"
     fill="#ffffff"
     id="path2"
     style="stroke:#ffffff;stroke-width:26.7277;stroke-dasharray:none;stroke-opacity:1" />
</svg>
