<?xml version="1.0" standalone="no"?><!DOCTYPE svg PUBLIC "-//W3C//DTD SVG 1.1//EN" "http://www.w3.org/Graphics/SVG/1.1/DTD/svg11.dtd"><svg t="1770968539810" class="icon" viewBox="0 0 1024 1024" version="1.1" xmlns="http://www.w3.org/2000/svg" p-id="3298" xmlns:xlink="http://www.w3.org/1999/xlink" width="200" height="200"><path d="M874.666667 533.333333a341.333333 341.333333 0 1 0-682.666667 0 341.333333 341.333333 0 0 0 682.666667 0z m64 0a405.333333 405.333333 0 1 1-810.666667 0 405.333333 405.333333 0 0 1 810.666667 0z m-373.333334-213.333333a32 32 0 0 0-64 0V554.666667c0 17.664 14.336 32 32 32h213.333334a32 32 0 0 0 0-64h-181.333334V320z" fill="#ffffff" p-id="3299"></path></svg>