<?xml version="1.0" encoding="UTF-8" standalone="no"?>
<svg
   t="1771676683431"
   class="icon"
   viewBox="0 0 1024 1024"
   version="1.1"
   p-id="2105"
   width="200"
   height="200"
   id="svg2"
   sodipodi:docname="share.svg"
   inkscape:version="1.4.3 (0d15f75, 2025-12-25)"
   xmlns:inkscape="http://www.inkscape.org/namespaces/inkscape"
   xmlns:sodipodi="http://sodipodi.sourceforge.net/DTD/sodipodi-0.dtd"
   xmlns="http://www.w3.org/2000/svg"
   xmlns:svg="http://www.w3.org/2000/svg">
  <defs
     id="defs2" />
  <sodipodi:namedview
     id="namedview2"
     pagecolor="#ffffff"
     bordercolor="#000000"
     borderopacity="0.25"
     inkscape:showpageshadow="2"
     inkscape:pageopacity="0.0"
     inkscape:pagecheckerboard="true"
     inkscape:deskcolor="#d1d1d1"
     inkscape:zoom="4.035"
     inkscape:cx="99.876084"
     inkscape:cy="99.752169"
     inkscape:window-width="1920"
     inkscape:window-height="1009"
     inkscape:window-x="3832"
     inkscape:window-y="-8"
     inkscape:window-maximized="1"
     inkscape:current-layer="svg2" />
  <path
     id="path1"
     style="fill:#ffffff;fill-opacity:1;stroke:#ffffff;stroke-width:26.6615;stroke-dasharray:none;stroke-opacity:1"
     d="m 238.54292,174.74286 c -34.63764,0 -63.80006,29.16242 -63.80006,63.80006 v 546.91416 c 0,34.63764 29.16242,63.80006 63.80006,63.80006 h 546.91416 c 34.63764,0 63.80006,-29.16242 63.80006,-63.80006 V 566.68725 c 0,-14.58428 -12.75415,-27.33842 -27.33842,-27.33842 -14.58427,0 -27.34883,12.75414 -27.34883,27.33842 v 218.76983 c 0,5.4691 -3.64371,9.11281 -9.11281,9.11281 H 238.54292 c -5.4691,0 -9.11281,-3.64371 -9.11281,-9.11281 V 238.54292 c 0,-5.4691 3.64371,-9.11281 9.11281,-9.11281 h 218.76983 c 14.58428,0 27.33842,-12.76456 27.33842,-27.34883 0,-14.58427 -12.75414,-27.33842 -27.33842,-27.33842 z m 382.84199,0 c -14.58425,0 -27.34883,12.75415 -27.34883,27.33842 0,14.58427 12.76458,27.34883 27.34883,27.34883 H 756.28569 L 510.17744,473.7158 c -10.9382,10.9382 -10.9382,27.346 0,38.2842 5.4691,5.46911 12.75603,7.29024 20.04817,7.29024 7.29214,0 14.58949,-1.82113 20.05859,-7.29024 L 794.56989,267.71431 v 134.90078 c 0,14.58425 12.76456,27.34883 27.34883,27.34883 14.58427,0 27.33842,-12.76458 27.33842,-27.34883 V 202.08128 c 0,-14.58427 -12.75415,-27.33842 -27.33842,-27.33842 z" />
</svg>
